<?xml version="1.0" encoding="UTF-8" standalone="no"?>
<!DOCTYPE svg PUBLIC "-//W3C//DTD SVG 1.1//EN"
 "http://www.w3.org/Graphics/SVG/1.1/DTD/svg11.dtd">
<!-- Generated by graphviz version 2.44.1 (20200629.0846)
 -->
<!-- Title: dependencies Pages: 1 -->
<svg width="589pt" height="692pt"
 viewBox="0.00 0.00 589.14 692.00" xmlns="http://www.w3.org/2000/svg" xmlns:xlink="http://www.w3.org/1999/xlink">
<g id="graph0" class="graph" transform="scale(1 1) rotate(0) translate(4 688)">
<title>dependencies</title>
<polygon fill="white" stroke="transparent" points="-4,4 -4,-688 585.14,-688 585.14,4 -4,4"/>
<!-- Properties/CP -->
<g id="node1" class="node">
<title>Properties/CP</title>
<ellipse fill="#ffd700" stroke="#ffd700" cx="230.3" cy="-18" rx="27" ry="18"/>
<text text-anchor="middle" x="230.3" y="-14.3" font-family="Times,serif" font-size="14.00">CP</text>
</g>
<!-- Properties/CQ -->
<g id="node2" class="node">
<title>Properties/CQ</title>
<ellipse fill="#ffd700" stroke="#ffd700" cx="230.3" cy="-90" rx="27" ry="18"/>
<text text-anchor="middle" x="230.3" y="-86.3" font-family="Times,serif" font-size="14.00">CQ</text>
</g>
<!-- Properties/CQ&#45;&gt;Properties/CP -->
<g id="edge9" class="edge">
<title>Properties/CQ&#45;&gt;Properties/CP</title>
<path fill="none" stroke="black" d="M230.3,-71.7C230.3,-63.98 230.3,-54.71 230.3,-46.11"/>
<polygon fill="black" stroke="black" points="233.8,-46.1 230.3,-36.1 226.8,-46.1 233.8,-46.1"/>
</g>
<!-- Properties/CG -->
<g id="node3" class="node">
<title>Properties/CG</title>
<ellipse fill="#ffd700" stroke="#ffd700" cx="230.3" cy="-162" rx="27" ry="18"/>
<text text-anchor="middle" x="230.3" y="-158.3" font-family="Times,serif" font-size="14.00">CG</text>
</g>
<!-- Properties/CG&#45;&gt;Properties/CQ -->
<g id="edge10" class="edge">
<title>Properties/CG&#45;&gt;Properties/CQ</title>
<path fill="none" stroke="black" d="M230.3,-143.7C230.3,-135.98 230.3,-126.71 230.3,-118.11"/>
<polygon fill="black" stroke="black" points="233.8,-118.1 230.3,-108.1 226.8,-118.1 233.8,-118.1"/>
</g>
<!-- Properties/TreeChain -->
<g id="node4" class="node">
<title>Properties/TreeChain</title>
<ellipse fill="#ffd700" stroke="#ffd700" cx="135.3" cy="-450" rx="48.19" ry="18"/>
<text text-anchor="middle" x="135.3" y="-446.3" font-family="Times,serif" font-size="14.00">TreeChain</text>
</g>
<!-- Properties/TreeChain&#45;&gt;Properties/CG -->
<g id="edge8" class="edge">
<title>Properties/TreeChain&#45;&gt;Properties/CG</title>
<path fill="none" stroke="black" d="M140.95,-431.97C156.89,-383.98 202.26,-247.41 221.5,-189.49"/>
<polygon fill="black" stroke="black" points="224.84,-190.54 224.67,-179.94 218.19,-188.33 224.84,-190.54"/>
</g>
<!-- Properties/SsrFacts -->
<g id="node5" class="node">
<title>Properties/SsrFacts</title>
<ellipse fill="#ffd700" stroke="#ffd700" cx="40.3" cy="-522" rx="40.09" ry="18"/>
<text text-anchor="middle" x="40.3" y="-518.3" font-family="Times,serif" font-size="14.00">SsrFacts</text>
</g>
<!-- Properties/SsrFacts&#45;&gt;Properties/TreeChain -->
<g id="edge12" class="edge">
<title>Properties/SsrFacts&#45;&gt;Properties/TreeChain</title>
<path fill="none" stroke="black" d="M60.44,-506.15C73.74,-496.36 91.37,-483.37 106.18,-472.45"/>
<polygon fill="black" stroke="black" points="108.55,-475.06 114.52,-466.31 104.39,-469.42 108.55,-475.06"/>
</g>
<!-- Properties/MemEq -->
<g id="node6" class="node">
<title>Properties/MemEq</title>
<ellipse fill="#ffd700" stroke="#ffd700" cx="139.3" cy="-522" rx="40.09" ry="18"/>
<text text-anchor="middle" x="139.3" y="-518.3" font-family="Times,serif" font-size="14.00">MemEq</text>
</g>
<!-- Properties/MemEq&#45;&gt;Properties/TreeChain -->
<g id="edge11" class="edge">
<title>Properties/MemEq&#45;&gt;Properties/TreeChain</title>
<path fill="none" stroke="black" d="M138.31,-503.7C137.87,-495.98 137.34,-486.71 136.85,-478.11"/>
<polygon fill="black" stroke="black" points="140.34,-477.89 136.27,-468.1 133.35,-478.29 140.34,-477.89"/>
</g>
<!-- Model/Schedule -->
<g id="node7" class="node">
<title>Model/Schedule</title>
<ellipse fill="forestgreen" stroke="forestgreen" cx="287.3" cy="-234" rx="42.79" ry="18"/>
<text text-anchor="middle" x="287.3" y="-230.3" font-family="Times,serif" font-size="14.00">Schedule</text>
</g>
<!-- Model/Schedule&#45;&gt;Properties/CG -->
<g id="edge7" class="edge">
<title>Model/Schedule&#45;&gt;Properties/CG</title>
<path fill="none" stroke="black" d="M274.08,-216.76C266.68,-207.68 257.33,-196.19 249.17,-186.18"/>
<polygon fill="black" stroke="black" points="251.69,-183.73 242.66,-178.19 246.26,-188.15 251.69,-183.73"/>
</g>
<!-- Model/Network -->
<g id="node8" class="node">
<title>Model/Network</title>
<ellipse fill="forestgreen" stroke="forestgreen" cx="287.3" cy="-306" rx="41.69" ry="18"/>
<text text-anchor="middle" x="287.3" y="-302.3" font-family="Times,serif" font-size="14.00">Network</text>
</g>
<!-- Model/Network&#45;&gt;Model/Schedule -->
<g id="edge5" class="edge">
<title>Model/Network&#45;&gt;Model/Schedule</title>
<path fill="none" stroke="black" d="M287.3,-287.7C287.3,-279.98 287.3,-270.71 287.3,-262.11"/>
<polygon fill="black" stroke="black" points="290.8,-262.1 287.3,-252.1 283.8,-262.1 290.8,-262.1"/>
</g>
<!-- Model/GlobalState -->
<g id="node9" class="node">
<title>Model/GlobalState</title>
<ellipse fill="forestgreen" stroke="forestgreen" cx="287.3" cy="-378" rx="51.99" ry="18"/>
<text text-anchor="middle" x="287.3" y="-374.3" font-family="Times,serif" font-size="14.00">GlobalState</text>
</g>
<!-- Model/GlobalState&#45;&gt;Model/Network -->
<g id="edge4" class="edge">
<title>Model/GlobalState&#45;&gt;Model/Network</title>
<path fill="none" stroke="black" d="M287.3,-359.7C287.3,-351.98 287.3,-342.71 287.3,-334.11"/>
<polygon fill="black" stroke="black" points="290.8,-334.1 287.3,-324.1 283.8,-334.1 290.8,-334.1"/>
</g>
<!-- Model/MessageTuple -->
<g id="node10" class="node">
<title>Model/MessageTuple</title>
<ellipse fill="forestgreen" stroke="forestgreen" cx="377.3" cy="-450" rx="62.29" ry="18"/>
<text text-anchor="middle" x="377.3" y="-446.3" font-family="Times,serif" font-size="14.00">MessageTuple</text>
</g>
<!-- Model/MessageTuple&#45;&gt;Model/GlobalState -->
<g id="edge1" class="edge">
<title>Model/MessageTuple&#45;&gt;Model/GlobalState</title>
<path fill="none" stroke="black" d="M356.42,-432.76C344.21,-423.27 328.63,-411.15 315.36,-400.82"/>
<polygon fill="black" stroke="black" points="317.48,-398.04 307.44,-394.67 313.18,-403.57 317.48,-398.04"/>
</g>
<!-- Protocol/StateMonad -->
<g id="node11" class="node">
<title>Protocol/StateMonad</title>
<ellipse fill="deepskyblue" stroke="deepskyblue" cx="511.3" cy="-450" rx="53.89" ry="18"/>
<text text-anchor="middle" x="511.3" y="-446.3" font-family="Times,serif" font-size="14.00">StateMonad</text>
</g>
<!-- Protocol/Protocol -->
<g id="node12" class="node">
<title>Protocol/Protocol</title>
<ellipse fill="deepskyblue" stroke="deepskyblue" cx="473.3" cy="-378" rx="40.09" ry="18"/>
<text text-anchor="middle" x="473.3" y="-374.3" font-family="Times,serif" font-size="14.00">Protocol</text>
</g>
<!-- Protocol/StateMonad&#45;&gt;Protocol/Protocol -->
<g id="edge20" class="edge">
<title>Protocol/StateMonad&#45;&gt;Protocol/Protocol</title>
<path fill="none" stroke="black" d="M502.1,-432.05C497.66,-423.89 492.25,-413.91 487.32,-404.82"/>
<polygon fill="black" stroke="black" points="490.26,-402.91 482.41,-395.79 484.11,-406.25 490.26,-402.91"/>
</g>
<!-- Protocol/Protocol&#45;&gt;Model/Schedule -->
<g id="edge6" class="edge">
<title>Protocol/Protocol&#45;&gt;Model/Schedule</title>
<path fill="none" stroke="black" d="M453.74,-362.07C420.62,-336.78 353.36,-285.44 315.26,-256.35"/>
<polygon fill="black" stroke="black" points="317.22,-253.44 307.15,-250.16 312.97,-259.01 317.22,-253.44"/>
</g>
<!-- Protocol/LocalState -->
<g id="node13" class="node">
<title>Protocol/LocalState</title>
<ellipse fill="deepskyblue" stroke="deepskyblue" cx="249.3" cy="-450" rx="48.19" ry="18"/>
<text text-anchor="middle" x="249.3" y="-446.3" font-family="Times,serif" font-size="14.00">LocalState</text>
</g>
<!-- Protocol/LocalState&#45;&gt;Model/GlobalState -->
<g id="edge2" class="edge">
<title>Protocol/LocalState&#45;&gt;Model/GlobalState</title>
<path fill="none" stroke="black" d="M258.5,-432.05C262.93,-423.89 268.34,-413.91 273.28,-404.82"/>
<polygon fill="black" stroke="black" points="276.49,-406.25 278.18,-395.79 270.34,-402.91 276.49,-406.25"/>
</g>
<!-- Protocol/LocalState&#45;&gt;Protocol/Protocol -->
<g id="edge18" class="edge">
<title>Protocol/LocalState&#45;&gt;Protocol/Protocol</title>
<path fill="none" stroke="black" d="M285.29,-437.75C325.13,-425.3 389.27,-405.26 431.36,-392.11"/>
<polygon fill="black" stroke="black" points="432.53,-395.41 441.03,-389.08 430.44,-388.72 432.53,-395.41"/>
</g>
<!-- Protocol/BlockTree -->
<g id="node14" class="node">
<title>Protocol/BlockTree</title>
<ellipse fill="deepskyblue" stroke="deepskyblue" cx="249.3" cy="-522" rx="48.19" ry="18"/>
<text text-anchor="middle" x="249.3" y="-518.3" font-family="Times,serif" font-size="14.00">BlockTree</text>
</g>
<!-- Protocol/BlockTree&#45;&gt;Properties/TreeChain -->
<g id="edge13" class="edge">
<title>Protocol/BlockTree&#45;&gt;Properties/TreeChain</title>
<path fill="none" stroke="black" d="M225.4,-506.33C208.68,-496.06 186.14,-482.22 167.79,-470.95"/>
<polygon fill="black" stroke="black" points="169.52,-467.91 159.16,-465.65 165.85,-473.87 169.52,-467.91"/>
</g>
<!-- Protocol/BlockTree&#45;&gt;Protocol/LocalState -->
<g id="edge16" class="edge">
<title>Protocol/BlockTree&#45;&gt;Protocol/LocalState</title>
<path fill="none" stroke="black" d="M249.3,-503.7C249.3,-495.98 249.3,-486.71 249.3,-478.11"/>
<polygon fill="black" stroke="black" points="252.8,-478.1 249.3,-468.1 245.8,-478.1 252.8,-478.1"/>
</g>
<!-- Protocol/Messages -->
<g id="node15" class="node">
<title>Protocol/Messages</title>
<ellipse fill="deepskyblue" stroke="deepskyblue" cx="377.3" cy="-522" rx="45.49" ry="18"/>
<text text-anchor="middle" x="377.3" y="-518.3" font-family="Times,serif" font-size="14.00">Messages</text>
</g>
<!-- Protocol/Messages&#45;&gt;Model/MessageTuple -->
<g id="edge3" class="edge">
<title>Protocol/Messages&#45;&gt;Model/MessageTuple</title>
<path fill="none" stroke="black" d="M377.3,-503.7C377.3,-495.98 377.3,-486.71 377.3,-478.11"/>
<polygon fill="black" stroke="black" points="380.8,-478.1 377.3,-468.1 373.8,-478.1 380.8,-478.1"/>
</g>
<!-- Protocol/Messages&#45;&gt;Protocol/Protocol -->
<g id="edge19" class="edge">
<title>Protocol/Messages&#45;&gt;Protocol/Protocol</title>
<path fill="none" stroke="black" d="M420.12,-515.57C472.24,-507.97 555.66,-492.31 574.3,-468 584.03,-455.3 582.57,-445.69 574.3,-432 561.95,-411.57 538.84,-398.63 517.83,-390.66"/>
<polygon fill="black" stroke="black" points="518.97,-387.35 508.38,-387.33 516.65,-393.95 518.97,-387.35"/>
</g>
<!-- Protocol/Blocks -->
<g id="node16" class="node">
<title>Protocol/Blocks</title>
<ellipse fill="deepskyblue" stroke="deepskyblue" cx="313.3" cy="-594" rx="35.19" ry="18"/>
<text text-anchor="middle" x="313.3" y="-590.3" font-family="Times,serif" font-size="14.00">Blocks</text>
</g>
<!-- Protocol/Blocks&#45;&gt;Protocol/BlockTree -->
<g id="edge14" class="edge">
<title>Protocol/Blocks&#45;&gt;Protocol/BlockTree</title>
<path fill="none" stroke="black" d="M299.09,-577.46C290.88,-568.48 280.36,-556.98 271.12,-546.87"/>
<polygon fill="black" stroke="black" points="273.68,-544.49 264.35,-539.47 268.52,-549.21 273.68,-544.49"/>
</g>
<!-- Protocol/Blocks&#45;&gt;Protocol/Messages -->
<g id="edge17" class="edge">
<title>Protocol/Blocks&#45;&gt;Protocol/Messages</title>
<path fill="none" stroke="black" d="M327.5,-577.46C335.72,-568.48 346.23,-556.98 355.48,-546.87"/>
<polygon fill="black" stroke="black" points="358.08,-549.21 362.24,-539.47 352.91,-544.49 358.08,-549.21"/>
</g>
<!-- Protocol/Parameters -->
<g id="node17" class="node">
<title>Protocol/Parameters</title>
<ellipse fill="deepskyblue" stroke="deepskyblue" cx="313.3" cy="-666" rx="50.09" ry="18"/>
<text text-anchor="middle" x="313.3" y="-662.3" font-family="Times,serif" font-size="14.00">Parameters</text>
</g>
<!-- Protocol/Parameters&#45;&gt;Protocol/Blocks -->
<g id="edge15" class="edge">
<title>Protocol/Parameters&#45;&gt;Protocol/Blocks</title>
<path fill="none" stroke="black" d="M313.3,-647.7C313.3,-639.98 313.3,-630.71 313.3,-622.11"/>
<polygon fill="black" stroke="black" points="316.8,-622.1 313.3,-612.1 309.8,-622.1 316.8,-622.1"/>
</g>
</g>
</svg>
